<?xml version="1.0" encoding="UTF-8" standalone="no"?>
<svg
   inkscape:version="1.4.3 (0d15f75, 2025-12-25)"
   sodipodi:docname="stamp1.svg"
   xml:space="preserve"
   enable-background="new 0 0 230.666 217.334"
   viewBox="0 0 103.88397 141.61798"
   height="141.61798"
   width="103.88397"
   y="0px"
   x="0px"
   id="svg64"
   version="1.1"
   xmlns:inkscape="http://www.inkscape.org/namespaces/inkscape"
   xmlns:sodipodi="http://sodipodi.sourceforge.net/DTD/sodipodi-0.dtd"
   xmlns="http://www.w3.org/2000/svg"
   xmlns:svg="http://www.w3.org/2000/svg"
   xmlns:rdf="http://www.w3.org/1999/02/22-rdf-syntax-ns#"
   xmlns:cc="http://creativecommons.org/ns#"
   xmlns:dc="http://purl.org/dc/elements/1.1/"><metadata
     id="metadata5051"><rdf:RDF><cc:Work
         rdf:about=""><dc:format>image/svg+xml</dc:format><dc:type
           rdf:resource="http://purl.org/dc/dcmitype/StillImage" /></cc:Work></rdf:RDF></metadata><defs
     id="defs5049" /><sodipodi:namedview
     fit-margin-bottom="0"
     fit-margin-right="0"
     fit-margin-left="0"
     fit-margin-top="0"
     inkscape:document-rotation="0"
     inkscape:current-layer="g4860"
     inkscape:window-maximized="0"
     inkscape:window-y="31"
     inkscape:window-x="0"
     inkscape:cy="106.54708"
     inkscape:cx="29.282328"
     inkscape:zoom="6.8983587"
     showgrid="false"
     id="namedview5047"
     inkscape:window-height="801"
     inkscape:window-width="1198"
     inkscape:pageshadow="2"
     inkscape:pageopacity="0"
     guidetolerance="10"
     gridtolerance="10"
     objecttolerance="10"
     borderopacity="1"
     bordercolor="#666666"
     pagecolor="#ffffff"
     inkscape:showpageshadow="0"
     inkscape:pagecheckerboard="0"
     inkscape:deskcolor="#505050" /><g
     transform="translate(-40.414512,-24.987512)"
     style="stroke-width:3;stroke-miterlimit:4;stroke-dasharray:none;filter:url(#filter5061)"
     id="g5044"><g
       style="stroke-width:3;stroke-miterlimit:4;stroke-dasharray:none"
       transform="translate(-216,28)"
       id="g4860"><path
         id="path3866"
         style="baseline-shift:baseline;display:inline;overflow:visible;opacity:1;vector-effect:none;enable-background:accumulate;stop-color:#000000;stop-opacity:1"
         d="M 284.96334 40.051965 L 286.57272 89.186731 L 289.53561 89.206262 L 289.53561 89.202356 L 324.0942 89.522668 C 324.0942 89.522668 326.65054 88.788113 329.20162 86.780481 C 331.7527 84.772849 334.4146 81.327614 334.53951 76.202356 C 334.68543 70.204096 331.97462 66.330405 329.2524 64.163293 C 328.69249 63.717557 328.12818 63.338414 327.58639 63.014856 C 328.04509 62.799917 328.51994 62.550886 328.99459 62.266809 C 331.68034 60.659392 334.55173 57.631335 334.54147 52.897668 C 334.52927 47.254579 331.21948 43.828515 328.08443 42.096887 C 324.94939 40.365259 321.69186 40.051965 321.69186 40.051965 L 303.81686 40.051965 L 284.96334 40.051965 z M 288.05709 43.051965 L 303.81686 43.051965 L 321.60592 43.051965 C 322.03077 43.107854 324.34378 43.459255 326.63326 44.72384 C 329.16722 46.123462 331.53167 48.373618 331.54147 52.903528 C 331.54947 56.472861 329.59728 58.410757 327.45553 59.69259 C 325.59663 60.805137 323.71987 61.23697 323.25631 61.331262 L 323.25436 61.331262 L 323.2524 61.331262 L 288.65084 61.600793 L 288.05709 43.051965 z M 323.20553 64.331262 L 323.20748 64.331262 C 323.72145 64.47227 325.5474 65.045946 327.38522 66.508996 C 329.5535 68.235134 331.66555 71.02935 331.54147 76.13009 C 331.44038 80.277832 329.42007 82.790941 327.34615 84.423059 C 325.65499 85.753957 324.00501 86.389992 323.45357 86.579309 L 289.4399 86.204309 L 288.74654 64.59884 L 323.20553 64.331262 z " /></g><path
       style="stroke-width:3;stroke-miterlimit:4;stroke-dasharray:none"
       d="m 42.988,26.993 -1.135,85.969 53.057,52.205 47.95,-49.084 -2.554,-89.657 z"
       stroke-miterlimit="10"
       stroke-width="2.5"
       stroke="#000000"
       fill="none"
       id="path3862" /><g
       style="stroke-width:3;stroke-miterlimit:4;stroke-dasharray:none"
       transform="translate(-216,28)"
       id="g4727"><path
         id="path3864"
         style="baseline-shift:baseline;display:inline;overflow:visible;opacity:1;vector-effect:none;enable-background:accumulate;stop-color:#000000;stop-opacity:1"
         d="M 271.10787 18.454309 L 271.10787 31.903528 L 274.10787 31.903528 L 274.10787 21.522668 L 295.80709 22.020715 L 296.08053 48.153528 C 296.08025 48.154263 296.0808 48.154744 296.08053 48.155481 C 295.74585 49.044048 295.11342 50.418318 294.02584 51.796106 C 292.19681 54.113201 289.25971 56.35717 283.99459 56.22384 C 279.6563 56.113662 277.08436 53.058894 275.41842 49.721887 C 273.75247 46.38488 273.24068 43.032434 273.24068 43.032434 L 270.27193 43.47384 C 270.27193 43.47384 270.82077 47.227738 272.73482 51.061731 C 274.64888 54.895724 278.17671 59.076066 283.91842 59.221887 C 290.1053 59.378558 294.11988 56.515933 296.37936 53.653528 C 298.63858 50.791427 299.32062 47.851421 299.32076 47.850793 C 299.08504 37.589115 298.87782 28.665255 298.77584 19.089074 L 271.10787 18.454309 z " /></g><path
       id="path4853"
       style="baseline-shift:baseline;display:inline;overflow:visible;vector-effect:none;enable-background:accumulate;stop-color:#000000;stop-opacity:1;opacity:1"
       d="M 111.7192 42.344934 C 111.36666 42.34982 111.03146 42.37309 110.71529 42.415246 C 105.02765 43.174293 100.82126 46.710598 98.314903 51.303918 C 95.808546 55.897239 94.882339 61.552389 95.457481 66.969934 C 96.032624 72.387479 98.116626 77.608759 101.88131 81.214074 C 105.64599 84.819388 111.13985 86.663267 117.88131 85.319543 C 120.83564 84.7307 123.5358 83.611438 125.65475 81.454309 C 127.77369 79.29718 129.23776 76.193641 130.03561 71.876184 L 127.08639 71.331262 C 126.36023 75.260805 125.11293 77.725124 123.51412 79.352746 C 121.91531 80.980367 119.89004 81.86098 117.29537 82.378137 C 111.34633 83.563914 107.06695 82.025901 103.95748 79.048059 C 100.84801 76.070217 98.957339 71.509108 98.441856 66.653528 C 97.926374 61.797948 98.793974 56.688504 100.94772 52.741418 C 103.10145 48.794333 106.42143 46.013856 111.11178 45.387903 C 112.48242 45.205151 115.85612 45.759304 118.80123 47.97384 C 121.74634 50.188377 124.44549 53.957164 125.08053 60.405481 L 128.06686 60.112512 L 127.82272 42.815637 L 124.82467 42.88009 L 124.98678 50.434778 C 123.72969 48.384915 122.20669 46.780552 120.60397 45.575403 C 117.47637 43.223653 114.18701 42.310729 111.7192 42.344934 z " /></g></svg>
