<?xml version="1.0" encoding="UTF-8" standalone="no"?>
<svg
   xmlns:dc="http://purl.org/dc/elements/1.1/"
   xmlns:cc="http://creativecommons.org/ns#"
   xmlns:rdf="http://www.w3.org/1999/02/22-rdf-syntax-ns#"
   xmlns:svg="http://www.w3.org/2000/svg"
   xmlns="http://www.w3.org/2000/svg"
   xmlns:sodipodi="http://sodipodi.sourceforge.net/DTD/sodipodi-0.dtd"
   xmlns:inkscape="http://www.inkscape.org/namespaces/inkscape"
   width="251.5386mm"
   height="48.535053mm"
   viewBox="0 0 251.5386 48.535053"
   version="1.1"
   id="svg8"
   inkscape:version="1.0 (4035a4f, 2020-05-01)"
   sodipodi:docname="signature.svg">
  <defs
     id="defs2" />
  <sodipodi:namedview
     fit-margin-bottom="0"
     fit-margin-right="0"
     fit-margin-left="0"
     fit-margin-top="0"
     id="base"
     pagecolor="#ffffff"
     bordercolor="#666666"
     borderopacity="1.0"
     inkscape:pageopacity="0.0"
     inkscape:pageshadow="2"
     inkscape:zoom="2"
     inkscape:cx="426.5614"
     inkscape:cy="55.402211"
     inkscape:document-units="mm"
     inkscape:current-layer="layer1"
     inkscape:document-rotation="0"
     showgrid="false"
     inkscape:window-width="1248"
     inkscape:window-height="943"
     inkscape:window-x="0"
     inkscape:window-y="23"
     inkscape:window-maximized="0" />
  <metadata
     id="metadata5">
    <rdf:RDF>
      <cc:Work
         rdf:about="">
        <dc:format>image/svg+xml</dc:format>
        <dc:type
           rdf:resource="http://purl.org/dc/dcmitype/StillImage" />
        <dc:title></dc:title>
      </cc:Work>
    </rdf:RDF>
  </metadata>
  <g
     transform="translate(32.845671,-72.541111)"
     inkscape:label="Ebene 1"
     inkscape:groupmode="layer"
     id="layer1">
    <path
       style="fill:#000000;stroke-width:0.264583"
       d="m 197.95007,120.06883 c -3.65732,-1.05135 -6.84023,-2.3925 -9.15097,-3.85584 -0.7276,-0.46078 -1.56215,-0.91279 -1.85454,-1.00447 -0.61715,-0.19351 -4.22252,-4.00278 -4.87761,-5.79856 -0.79603,-2.18215 -0.61553,-6.69104 -0.15343,-8.28078 0.67681,-2.32816 0.13759,-2.55465 -4.63078,-1.94511 -1.23311,0.15763 -2.71521,0.32705 -3.29355,0.37648 -1.81778,1.13948 -3.40868,2.13505 -6.06684,2.64421 -2.55753,1.13106 -3.88479,0.7715 -3.30384,-0.89502 -0.24891,-1.319392 -0.0677,-3.16799 0.6263,-4.92581 0.60718,-0.879033 1.31952,-1.792907 2.03308,-2.33799 0.88483,-0.71205 1.54101,-2.590568 2.72904,-2.82138 0.45779,0 1.40395,1.3277 1.56753,2.19962 0.0952,0.50721 0.34601,1.06579 0.55747,1.24128 3.48484,0.917687 7.35412,-0.257497 10.35338,-0.26589 1.23968,0 3.64367,-0.11353 5.3422,-0.25228 3.40967,-0.362801 9.70134,-0.101742 12.13937,-0.81938 0.58324,-0.36423 2.94829,-3.35605 3.57132,-4.51775 0.44691,-0.87196 1.22517,-1.596948 1.73628,-2.25166 1.1461,-1.4731 2.24036,-1.66201 3.32785,-0.57452 0.98847,0.98848 0.85479,2.43903 -0.41446,4.49728 -1.18812,1.92668 -1.87526,3.84671 -1.82839,5.10893 0.0452,0.643804 0.45439,2.274907 -0.44792,2.61893 -0.71734,0.20823 -6.04623,0.26717 -8.91039,0.0986 -1.45521,-0.0857 -3.41974,-0.041 -4.36563,0.0992 -0.94588,0.14021 -2.12723,0.24332 -2.62521,0.22913 -1.05512,-0.0301 -3.17148,1.8238 -3.92304,3.43648 -1.17165,1.97476 -1.63586,4.84108 -0.24613,6.51871 1.1857,1.96067 3.14921,2.9269 4.76256,4.18727 0.7301,0.73009 6.02358,2.63917 8.11724,2.92746 0.65484,0.0902 2.32172,0.33305 3.70417,0.53973 1.38244,0.20669 3.90666,0.3765 5.60937,0.37736 6.10569,0.003 7.7508,-0.93076 7.58051,-4.303 -0.0969,-1.91861 -0.0969,-1.91861 1.17147,-0.39453 0.69759,0.83825 1.3604,1.52409 1.4729,1.52409 0.36598,3.45852 1.13027,4.52106 -1.04405,5.96978 -2.51447,1.58732 -2.79153,1.63549 -9.50936,1.65328 -6.20696,0.0164 -6.20696,0.0164 -9.75599,-1.00379 z m -53.73326,-10.30086 c -5.48042,-0.73912 -11.73116,-1.26589 -18.03713,-2.03506 -0.29165,-0.18024 -2.55994,-0.50943 -10.67016,-1.54853 -1.89177,-0.24238 -5.10646,-0.72604 -7.14375,-1.0748 -4.74819,-0.7662 -9.814575,-0.95575 -14.331419,-1.63283 -2.449697,-0.37229 -5.585089,-0.75126 -6.967537,-0.84215 -1.382448,-0.0909 -2.691606,-0.27964 -2.909242,-0.41946 -0.217636,-0.13981 -0.932011,-0.33623 -1.5875,-0.43648 -0.655489,-0.10025 -2.084768,-0.36264 -3.176175,-0.58309 -1.091406,-0.22045 -4.325911,-0.79564 -7.187787,-1.2782 -3.24189,-0.855944 -12.334352,-1.868833 -9.884741,-5.91467 0.626836,-1.519752 2.858308,-2.505336 4.041799,-2.83363 0.70149,-0.1776 9.539559,-0.07894 10.914063,-0.144942 2.223276,-0.106766 7.674045,-0.483974 9.392708,-0.342838 8.942684,-0.518905 17.672041,-1.132534 25.982871,-1.55178 5.91609,-0.07769 9.52746,-0.711843 14.94815,-0.9585 6.14714,-0.276562 10.06288,-0.631729 15.77161,-1.215889 0.74524,-0.233921 3.91632,-0.06122 3.75466,-1.277291 -0.46787,-1.255308 -3.32626,-1.344746 -4.67941,-1.34454 -3.00486,0.0409 -9.02867,-0.681667 -9.55124,-0.783788 -0.35917,-0.07019 -3.03579,-0.311002 -12.88914,-0.664532 -0.72761,-0.0261 -2.33495,-0.13041 -3.57188,-0.23179 -1.23692,-0.10138 -6.89239,-0.24043 -12.56771,-0.30901 -13.937009,-0.1684 -17.907015,-0.30122 -19.17021,-0.64136 -0.587963,-0.15832 -2.349257,-0.26323 -3.913987,-0.23312 -1.56473,0.0301 -4.651825,0.0428 -6.860212,0.0282 -4.015248,-0.0266 -4.015248,-0.0266 -5.291667,1.26024 -0.702029,0.70775 -1.633606,1.96336 -2.070168,2.79025 -0.369284,0.288566 -2.063848,3.558532 -2.207583,3.5624 -0.631955,0.727969 -2.06889,1.961597 -2.743099,3.019157 -0.375339,0.862427 -2.92815,4.487274 -3.222022,5.510803 -0.08815,0.32742 -0.991182,1.48554 -2.006732,2.5736 -1.732727,1.85644 -1.907956,1.97348 -2.844967,1.90027 -0.54918,-0.0429 -1.129345,-0.24668 -1.289256,-0.45282 -0.159909,-0.20614 -0.338503,-0.32713 -0.396875,-0.26888 -0.05837,0.0583 -0.123595,-0.15195 -0.144942,-0.46713 -0.02135,-0.31518 -0.06521,-0.69212 -0.09748,-0.83764 -0.203863,-1.726722 0.897229,-3.556757 1.055785,-3.57188 1.678906,-3.004139 4.387751,-5.627171 6.255652,-8.20208 1.780739,-1.837024 3.191843,-3.159928 3.964806,-4.65408 0.671748,-1.2044 -0.729003,-1.800087 -0.804662,-1.92083 -0.989868,-0.801058 -4.57128,-0.545579 -5.230534,-0.5615 -11.813011,-0.0497 -27.269104,0.0527 -28.917252,0.19168 -1.164167,0.0982 -2.652448,0.14934 -3.307292,0.11371 -4.051114,-0.22041 -12.370678,-0.0718 -17.594791,0.31423 -3.3469795,0.24734 -6.62119825,0.43482 -7.27604205,0.41663 -3.89032655,0.918304 -8.09153555,0.946051 -11.76320895,1.492268 -2.476583,0.330587 -3.536589,0.276937 -3.582624,1.036002 0,0.41472 0.233816,0.392754 0.638768,0.443817 2.460854,-0.0142 3.41448,0.247991 6.0954824,0.178005 0.8124464,-0.02121 2.4768583,-0.381683 2.5261659,0.334268 -0.033614,0.517173 -0.6418919,0.56848 -0.731602,0.599717 -0.157338,0.05478 -1.0553848,0.145233 -1.5948477,0.139183 -0.5394632,-0.006 -1.6356856,0.0508 -2.4360506,0.12635 -0.800364,0.0755 -3.241146,0.13562 -5.423958,0.13349 -4.804884,-0.005 -12.493533,0.45688 -14.226969,0.85409 -0.930645,0.21326 -1.357505,0.21033 -1.624346,-0.0111 -0.721562,-1.617019 -0.480196,-1.971341 -0.208313,-2.43325 0.11396,-0.627648 0.469635,-0.9285 2.429418,-1.42348 3.588691,-0.952911 6.199027,-1.416938 8.470832,-1.85457 6.428402,-1.182375 14.0001614,-2.455311 20.2339,-3.233191 3.3332629,-0.51329 7.6966026,-1.187415 10.89583,-1.195469 15.063889,-0.574785 26.289101,-0.600855 42.689021,-0.33396 10.709794,0.172188 16.687455,-0.646131 26.590625,-0.12834 0.436563,0.0241 1.72733,0.0742 2.868372,0.11117 1.965017,0.502207 3.916908,0.330091 5.703861,0.59281 24.915374,-0.286422 44.382784,2.450927 63.792074,3.77197 3.29785,0.22221 4.95162,0.582 6.15619,0.84436 1.93424,0.323222 3.85526,0.475957 4.68926,1.59806 1.54525,2.13316 1.25491,2.84953 -1.75161,4.32194 -2.11681,1.198534 -4.34665,1.181794 -6.30425,1.72034 -1.84067,0.502904 -9.04415,1.140536 -9.81593,1.33804 -2.69648,0.118336 -7.95287,0.748985 -11.96417,1.04055 -6.28913,0.415644 -12.29099,0.876861 -18.53916,0.903175 -1.87729,0.0079 -3.78644,0.260284 -5.26132,0.306605 -1.71327,0.0499 -4.48425,0.16216 -6.15774,0.24937 -1.67349,0.0872 -6.495518,0.19695 -10.715617,0.24388 -4.220104,0.0469 -8.268229,0.15839 -8.995833,0.24769 -0.727605,0.0893 -1.828933,0.15976 -2.447396,0.15659 -0.88665,0.127125 -1.303646,0.05839 -1.521354,0.5446 -0.589219,0 -0.480613,0.39905 0.198437,0.72912 0.736531,0.358 1.820722,0.60333 3.373438,0.76332 0.654843,0.0675 1.42875,0.22424 1.719791,0.34836 2.587797,0.320278 5.333723,1.278763 7.824484,1.44978 19.25407,2.40041 34.57788,4.88099 52.876,6.38031 3.04994,0.37615 5.25069,1.1633 8.75264,1.3386 4.78446,0.22157 4.95551,0.30311 4.10132,1.95493 -0.91828,1.77576 -1.99148,2.22651 -5.39093,2.26425 -2.56674,0.1421 -5.25005,-0.41134 -7.70619,-0.3897 z m 40.55592,-28.94844 c -1.82434,-0.66556 -2.00583,-1.8315 -0.69494,-4.46465 0.19563,-0.39295 0.35569,-0.94936 0.35569,-1.23647 0,-0.57983 1.10932,-2.01717 1.87173,-2.4252 0.68715,-0.36775 2.48367,-0.0293 3.15263,0.59393 0.30759,0.28656 0.72788,0.45632 0.93398,0.37724 0.20609,-0.0791 0.4515,-0.0196 0.54534,0.13228 0.0938,0.15184 0.38504,0.22001 0.64711,0.15148 0.59777,-0.15632 0.94514,0.87955 0.4256,1.26912 -0.34949,0.26206 -0.43264,0.43557 -0.43264,0.90279 0,0.13273 -0.47263,0.32118 -1.05029,0.41877 -0.79469,0.13427 -1.177,0.38247 -1.57099,1.01996 -0.28638,0.46338 -0.82578,1.12913 -1.19867,1.47943 -0.37288,0.35031 -0.67797,0.85724 -0.67797,1.12652 0,0.37448 -1.0696,1.12406 -1.40628,0.98553 -0.0269,-0.0111 -0.43204,-0.1599 -0.9003,-0.33073 z"
       id="path847"
       sodipodi:nodetypes="cssscscccccccccccccsscccsscccsscssccsccccsccsssscccsccccccsssssscsccccssscscccccccscccccscscccscccccccccccccccccscscsccscccccsccssssssssssssssss" />
  </g>
</svg>
