<?xml version="1.0" encoding="UTF-8" standalone="no"?>
<svg
   xmlns:dc="http://purl.org/dc/elements/1.1/"
   xmlns:cc="http://creativecommons.org/ns#"
   xmlns:rdf="http://www.w3.org/1999/02/22-rdf-syntax-ns#"
   xmlns:svg="http://www.w3.org/2000/svg"
   xmlns="http://www.w3.org/2000/svg"
   xmlns:sodipodi="http://sodipodi.sourceforge.net/DTD/sodipodi-0.dtd"
   xmlns:inkscape="http://www.inkscape.org/namespaces/inkscape"
   sodipodi:docname="Stamp2.svg"
   inkscape:version="1.0 (4035a4f, 2020-05-01)"
   id="svg8"
   version="1.1"
   viewBox="0 0 210 297"
   height="297mm"
   width="210mm">
  <defs
     id="defs2" />
  <sodipodi:namedview
     inkscape:window-maximized="0"
     inkscape:window-y="23"
     inkscape:window-x="0"
     inkscape:window-height="943"
     inkscape:window-width="1248"
     inkscape:guide-bbox="true"
     showguides="true"
     showgrid="false"
     inkscape:document-rotation="0"
     inkscape:current-layer="layer1"
     inkscape:document-units="mm"
     inkscape:cy="313.12607"
     inkscape:cx="310.47114"
     inkscape:zoom="8"
     inkscape:pageshadow="2"
     inkscape:pageopacity="0.0"
     borderopacity="1.0"
     bordercolor="#666666"
     pagecolor="#ffffff"
     id="base">
    <sodipodi:guide
       id="guide95"
       orientation="1,0"
       position="31.477668,212.62302" />
    <sodipodi:guide
       id="guide97"
       orientation="0,-1"
       position="42.74976,196.48662" />
    <sodipodi:guide
       id="guide99"
       orientation="1,0"
       position="119.68997,197.51561" />
    <sodipodi:guide
       id="guide101"
       orientation="0,-1"
       position="68.287363,226.32726" />
    <sodipodi:guide
       id="guide103"
       orientation="1,0"
       position="92.328256,207.66517" />
    <sodipodi:guide
       id="guide105"
       orientation="1,0"
       position="58.09103,207.05713" />
    <sodipodi:guide
       id="guide193"
       orientation="0,-1"
       position="29.185832,192.9787" />
    <sodipodi:guide
       id="guide195"
       orientation="0,-1"
       position="74.461289,189.89174" />
    <sodipodi:guide
       id="guide197"
       orientation="0,-1"
       position="76.612808,186.61769" />
    <sodipodi:guide
       id="guide199"
       orientation="0,-1"
       position="76.001561,183.75834" />
    <sodipodi:guide
       id="guide201"
       orientation="0,-1"
       position="80.168748,232.44167" />
    <sodipodi:guide
       id="guide203"
       orientation="1,0"
       position="51.064582,253.21147" />
    <sodipodi:guide
       id="guide205"
       orientation="1,0"
       position="99.747917,271.6" />
    <sodipodi:guide
       id="guide207"
       orientation="1,0"
       position="75.538542,223.18125" />
    <sodipodi:guide
       inkscape:color="rgb(0,0,255)"
       inkscape:locked="false"
       inkscape:label=""
       id="guide1032"
       orientation="0.93969262,-0.34202014"
       position="119.68997,196.48662" />
    <sodipodi:guide
       inkscape:color="rgb(0,0,255)"
       inkscape:locked="false"
       inkscape:label=""
       id="guide1034"
       orientation="0.93969262,0.34202014"
       position="31.477668,196.48662" />
    <sodipodi:guide
       id="guide1036"
       orientation="0,-1"
       position="75.53854,191.482" />
    <sodipodi:guide
       id="guide1038"
       orientation="0,-1"
       position="76.612808,205.13947" />
    <sodipodi:guide
       id="guide1040"
       orientation="0,-1"
       position="75.53854,220.48074" />
    <sodipodi:guide
       id="guide1042"
       orientation="1,0"
       position="69.690528,236.89777" />
    <sodipodi:guide
       id="guide1044"
       orientation="1,0"
       position="80.635215,236.47682" />
    <sodipodi:guide
       id="guide1046"
       orientation="0,-1"
       position="76.753125,251.25683" />
    <sodipodi:guide
       id="guide1048"
       orientation="0,-1"
       position="75.53854,243.58619" />
    <sodipodi:guide
       id="guide1073"
       orientation="1,0"
       position="71.982364,196.48663" />
    <sodipodi:guide
       id="guide1075"
       orientation="0,-1"
       position="73.479073,218.07197" />
    <sodipodi:guide
       id="guide1077"
       orientation="0,-1"
       position="74.2742,208.99817" />
    <sodipodi:guide
       id="guide1079"
       orientation="0,-1"
       position="79.933632,211.21985" />
  </sodipodi:namedview>
  <metadata
     id="metadata5">
    <rdf:RDF>
      <cc:Work
         rdf:about="">
        <dc:format>image/svg+xml</dc:format>
        <dc:type
           rdf:resource="http://purl.org/dc/dcmitype/StillImage" />
        <dc:title></dc:title>
      </cc:Work>
    </rdf:RDF>
  </metadata>
  <g
     id="layer1"
     inkscape:groupmode="layer"
     inkscape:label="Ebene 1">
    <path
       sodipodi:nodetypes="cccccccccccccccccccccccccccccccccccccccccccccccscscscccccsccscscsczcscscscccccssssssssssss"
       id="path93"
       d="M 65.183209,113.24166 H 36.110383 c 0,0 -0.710949,-1.95332 -1.018986,-2.85935 h 26.541914 c -0.668626,-0.83346 -1.57413,-2.03851 -2.630634,-3.27405 H 33.878008 c -0.431063,-0.85856 -0.791224,-2.17387 -1.123562,-3.08696 h 24.775318 c -0.753388,-0.9047 -1.181182,-2.04755 -1.785383,-3.50792 -5.031159,0 -16.214041,0 -24.266713,0.0465 0,-4.561286 0.01197,-27.210293 0,-36.001549 8.717624,-13.939472 14.573001,-26.019628 19.586914,-36.004073 2.873652,6.648317 9.209913,20.896903 13.378082,28.683573 1.376246,-1.344396 2.021188,-2.120355 3.110463,-3.82402 0.720137,-2.254041 1.450428,-5.047329 2.137401,-7.67064 1.044151,3.043092 2.078038,5.891427 2.755479,7.67064 1.061624,-3.666639 2.417556,-10.821882 3.092535,-14.620443 0.809674,4.782952 1.966196,12.700906 2.428895,14.620443 1.195359,-2.863708 1.848095,-5.180889 2.667778,-7.67064 0.95509,3.204194 1.699304,5.618437 2.487569,7.67064 0.526245,0.869353 1.389296,2.216994 2.720678,3.865496 4.33002,-6.987478 10.323036,-20.850198 13.904453,-28.428655 1.298745,2.857049 18.494975,33.091951 19.942055,35.707679 -0.006,4.489679 0,25.410036 -0.0428,35.955049 h -25.3038 c -0.366362,0.67265 -1.783018,2.78365 -2.015116,3.50792 3.586946,0 19.208626,0.0594 26.084936,0 -0.36079,0.99128 -0.70428,1.93499 -1.12356,3.08696 -9.21044,-0.17857 -23.184034,0 -26.646782,0 -0.781399,0.99706 -1.729043,2.18365 -2.876522,3.27405 h 28.331644 c -0.35032,0.96252 -0.71505,1.96458 -1.14212,2.85935 -9.09739,0 -20.405865,-0.01 -30.050204,0 -2.864194,2.50858 -5.114374,4.38287 -9.367106,5.32618 -4.461863,-0.85252 -7.039205,-2.75499 -10.355333,-5.32618 z m 25.633565,-12.72828 c 0.536784,-0.50104 0.956153,-2.350271 1.232485,-4.039201 0.278997,-8.289899 0.278997,-17.185088 0.322109,-25.801438 -6.308811,0 -28.980771,0.03685 -34.280338,0 0,7.472966 0,21.007767 0.129269,25.970668 0.227168,1.445391 0.618597,2.772097 1.636235,3.869971 4.010552,7.91925 8.748155,13.68181 15.682008,14.41267 5.724393,-0.28538 11.14211,-8.43419 15.278232,-14.41267 z m -22.175965,5.09983 c -0.06024,-4.24013 0.01957,-9.142751 0.231305,-13.752679 h 7.740694 c 0.373694,0.275043 2.217789,0.932003 2.233317,3.080187 0.01313,1.816622 0.115252,1.816433 -1.51975,3.504699 1.810701,0.652394 2.588006,1.809553 2.5581,3.510533 -0.03631,2.06535 -1.810057,2.78435 -2.713303,3.56205 -1.509982,0 -4.657561,0.0821 -8.530363,0.0952 z m 8.700905,-4.38076 c 0.01307,-1.647784 -1.803172,-1.385731 -5.35935,-1.421518 v 3.436078 c 3.556178,0.0439 5.351077,0.26848 5.35935,-2.01456 z m -1.140572,-5.446984 c 0.0087,-1.710049 -1.42399,-1.526436 -4.218778,-1.499763 v 3.206784 c 1.935963,-0.04376 4.250521,0.142039 4.218778,-1.707021 z m 4.434073,-7.783635 c -3.978417,0 -5.096673,-2.540709 -5.100759,-5.687092 -0.0041,-3.119985 0.926172,-5.795478 5.100759,-5.795478 1.924421,-0.112214 2.842893,0.199121 3.447341,0.835226 1.105387,1.16328 -0.453432,2.356863 -1.126097,1.087619 -2.321244,-0.523344 -5.164224,0.389102 -5.200659,3.851215 -0.03643,3.462112 2.879415,4.27163 5.394411,3.311398 0.886932,-1.127802 1.96717,-0.308013 1.466141,0.394671 -1.121223,1.572493 -1.303262,2.002441 -3.981137,2.002441 z M 67.42875,87.742393 c -1.970235,-0.503392 -3.698662,-1.227322 -2.560235,-2.506742 0.558942,-0.628162 1.642501,-0.628902 2.720385,-0.249592 1.797609,0.632582 2.142285,-0.178989 2.101628,-0.876213 -0.02648,-1.407201 -0.06524,-3.761508 -5e-6,-5.181815 H 65.1785 c -1.538962,0 -1.382955,-1.350607 -1.363445,-2.40877 1.218163,0 6.634789,-0.02251 8.167304,0 0.04514,1.212428 0.211515,8.827322 0,9.776164 -0.355227,1.593551 -2.413214,1.993828 -4.553618,1.446968 z M 128.91325,10.478 c -0.0381,-0.6527315 0.30624,-0.9064444 0.62111,-0.457683 0.20892,0.297754 -0.0387,1.086304 -0.34674,1.104267 -0.12973,0.0076 -0.25319,-0.283401 -0.27437,-0.646584 z M 101.18911,7.7215753 c -0.008,-0.1452733 0.10346,-0.2710621 0.24873,-0.2795331 0.14527,-0.00847 0.27107,0.1034557 0.27954,0.248729 0.008,0.1452732 -0.10346,0.2710726 -0.24874,0.2795436 -0.14527,0.00847 -0.27106,-0.1034663 -0.27953,-0.2487395 z"
       style="fill:#000000;stroke-width:0.264583" />
    <path
       transform="scale(0.26458333)"
       d="M 325.73633 77.564453 A 41.574803 41.574803 0 0 1 284.90039 111.33984 A 41.574803 41.574803 0 0 1 244.48828 79.525391 A 41.574803 41.574803 0 0 0 243.75 87.324219 A 41.574803 41.574803 0 0 0 285.32422 128.90039 A 41.574803 41.574803 0 0 0 326.90039 87.324219 A 41.574803 41.574803 0 0 0 325.73633 77.564453 z "
       style="fill:#000000;stroke-width:4.05642;fill-opacity:1"
       id="path1050" />
  </g>
</svg>
