<?xml version="1.0" encoding="UTF-8" standalone="no"?>
<svg
   xmlns:dc="http://purl.org/dc/elements/1.1/"
   xmlns:cc="http://creativecommons.org/ns#"
   xmlns:rdf="http://www.w3.org/1999/02/22-rdf-syntax-ns#"
   xmlns:svg="http://www.w3.org/2000/svg"
   xmlns="http://www.w3.org/2000/svg"
   xmlns:sodipodi="http://sodipodi.sourceforge.net/DTD/sodipodi-0.dtd"
   xmlns:inkscape="http://www.inkscape.org/namespaces/inkscape"
   width="88.212303mm"
   height="98.045578mm"
   viewBox="0 0 88.212303 98.045577"
   version="1.1"
   id="svg8"
   inkscape:version="1.0 (4035a4f, 2020-05-01)"
   sodipodi:docname="Stamp2.svg">
  <defs
     id="defs2" />
  <sodipodi:namedview
     fit-margin-bottom="0"
     fit-margin-right="0"
     fit-margin-left="0"
     fit-margin-top="0"
     id="base"
     pagecolor="#ffffff"
     bordercolor="#666666"
     borderopacity="1.0"
     inkscape:pageopacity="0.0"
     inkscape:pageshadow="2"
     inkscape:zoom="2"
     inkscape:cx="208.3698"
     inkscape:cy="158.81981"
     inkscape:document-units="mm"
     inkscape:current-layer="layer1"
     inkscape:document-rotation="0"
     showgrid="false"
     showguides="true"
     inkscape:guide-bbox="true"
     inkscape:window-width="1248"
     inkscape:window-height="943"
     inkscape:window-x="0"
     inkscape:window-y="23"
     inkscape:window-maximized="0">
    <sodipodi:guide
       position="-8.2593175e-08,34.190858"
       orientation="1,0"
       id="guide95" />
    <sodipodi:guide
       position="11.272092,18.054458"
       orientation="0,-1"
       id="guide97" />
    <sodipodi:guide
       position="88.212301,19.083448"
       orientation="1,0"
       id="guide99" />
    <sodipodi:guide
       position="36.809694,47.895099"
       orientation="0,-1"
       id="guide101" />
    <sodipodi:guide
       position="60.850587,29.233008"
       orientation="1,0"
       id="guide103" />
    <sodipodi:guide
       position="26.613362,28.624968"
       orientation="1,0"
       id="guide105" />
    <sodipodi:guide
       position="-2.2918361,14.546538"
       orientation="0,-1"
       id="guide193" />
    <sodipodi:guide
       position="42.98362,11.459578"
       orientation="0,-1"
       id="guide195" />
    <sodipodi:guide
       position="45.135139,8.1855288"
       orientation="0,-1"
       id="guide197" />
    <sodipodi:guide
       position="44.523892,5.3261787"
       orientation="0,-1"
       id="guide199" />
    <sodipodi:guide
       position="48.691079,54.009509"
       orientation="0,-1"
       id="guide201" />
    <sodipodi:guide
       position="19.586914,74.779308"
       orientation="1,0"
       id="guide203" />
    <sodipodi:guide
       position="68.270249,93.167838"
       orientation="1,0"
       id="guide205" />
    <sodipodi:guide
       position="44.060873,44.749089"
       orientation="1,0"
       id="guide207" />
    <sodipodi:guide
       position="88.212301,18.054458"
       orientation="0.93969262,-0.34202014"
       id="guide1032"
       inkscape:label=""
       inkscape:locked="false"
       inkscape:color="rgb(0,0,255)" />
    <sodipodi:guide
       position="-8.2593175e-08,18.054458"
       orientation="0.93969262,0.34202014"
       id="guide1034"
       inkscape:label=""
       inkscape:locked="false"
       inkscape:color="rgb(0,0,255)" />
    <sodipodi:guide
       position="44.060871,13.049838"
       orientation="0,-1"
       id="guide1036" />
    <sodipodi:guide
       position="45.135139,26.707308"
       orientation="0,-1"
       id="guide1038" />
    <sodipodi:guide
       position="44.060871,42.048579"
       orientation="0,-1"
       id="guide1040" />
    <sodipodi:guide
       position="38.212859,58.465609"
       orientation="1,0"
       id="guide1042" />
    <sodipodi:guide
       position="49.157546,58.044659"
       orientation="1,0"
       id="guide1044" />
    <sodipodi:guide
       position="45.275456,72.824668"
       orientation="0,-1"
       id="guide1046" />
    <sodipodi:guide
       position="44.060871,65.154028"
       orientation="0,-1"
       id="guide1048" />
    <sodipodi:guide
       position="40.504695,18.054468"
       orientation="1,0"
       id="guide1073" />
    <sodipodi:guide
       position="42.001404,39.639809"
       orientation="0,-1"
       id="guide1075" />
    <sodipodi:guide
       position="42.796531,30.566008"
       orientation="0,-1"
       id="guide1077" />
    <sodipodi:guide
       position="48.455963,32.787688"
       orientation="0,-1"
       id="guide1079" />
  </sodipodi:namedview>
  <metadata
     id="metadata5">
    <rdf:RDF>
      <cc:Work
         rdf:about="">
        <dc:format>image/svg+xml</dc:format>
        <dc:type
           rdf:resource="http://purl.org/dc/dcmitype/StillImage" />
        <dc:title></dc:title>
      </cc:Work>
    </rdf:RDF>
  </metadata>
  <g
     transform="translate(-31.477668,-20.522261)"
     inkscape:label="Ebene 1"
     inkscape:groupmode="layer"
     id="layer1">
    <path
       style="fill:#000000;stroke-width:0.264583"
       d="M 65.183209,113.24166 H 36.110383 c 0,0 -0.710949,-1.95332 -1.018986,-2.85935 h 26.541914 c -0.668626,-0.83346 -1.57413,-2.03851 -2.630634,-3.27405 H 33.878008 c -0.431063,-0.85856 -0.791224,-2.17387 -1.123562,-3.08696 h 24.775318 c -0.753388,-0.9047 -1.181182,-2.04755 -1.785383,-3.50792 -5.031159,0 -16.214041,0 -24.266713,0.0465 0,-4.561286 0.01197,-27.210293 0,-36.001549 8.717624,-13.939472 14.573001,-26.019628 19.586914,-36.004073 2.873652,6.648317 9.209913,20.896903 13.378082,28.683573 1.376246,-1.344396 2.021188,-2.120355 3.110463,-3.82402 0.720137,-2.254041 1.450428,-5.047329 2.137401,-7.67064 1.044151,3.043092 2.078038,5.891427 2.755479,7.67064 1.061624,-3.666639 2.417556,-10.821882 3.092535,-14.620443 0.809674,4.782952 1.966196,12.700906 2.428895,14.620443 1.195359,-2.863708 1.848095,-5.180889 2.667778,-7.67064 0.95509,3.204194 1.699304,5.618437 2.487569,7.67064 0.526245,0.869353 1.389296,2.216994 2.720678,3.865496 4.33002,-6.987478 10.323036,-20.850198 13.904453,-28.428655 1.298745,2.857049 18.494975,33.091951 19.942055,35.707679 -0.006,4.489679 0,25.410036 -0.0428,35.955049 h -25.3038 c -0.366362,0.67265 -1.783018,2.78365 -2.015116,3.50792 3.586946,0 19.208626,0.0594 26.084936,0 -0.36079,0.99128 -0.70428,1.93499 -1.12356,3.08696 -9.21044,-0.17857 -23.184034,0 -26.646782,0 -0.781399,0.99706 -1.729043,2.18365 -2.876522,3.27405 h 28.331644 c -0.35032,0.96252 -0.71505,1.96458 -1.14212,2.85935 -9.09739,0 -20.405865,-0.01 -30.050204,0 -2.864194,2.50858 -5.114374,4.38287 -9.367106,5.32618 -4.461863,-0.85252 -7.039205,-2.75499 -10.355333,-5.32618 z m 25.633565,-12.72828 c 0.536784,-0.50104 0.956153,-2.350271 1.232485,-4.039201 0.278997,-8.289899 0.278997,-17.185088 0.322109,-25.801438 -6.308811,0 -28.980771,0.03685 -34.280338,0 0,7.472966 0,21.007767 0.129269,25.970668 0.227168,1.445391 0.618597,2.772097 1.636235,3.869971 4.010552,7.91925 8.748155,13.68181 15.682008,14.41267 5.724393,-0.28538 11.14211,-8.43419 15.278232,-14.41267 z m -22.175965,5.09983 c -0.06024,-4.24013 0.01957,-9.142751 0.231305,-13.752679 h 7.740694 c 0.373694,0.275043 2.217789,0.932003 2.233317,3.080187 0.01313,1.816622 0.115252,1.816433 -1.51975,3.504699 1.810701,0.652394 2.588006,1.809553 2.5581,3.510533 -0.03631,2.06535 -1.810057,2.78435 -2.713303,3.56205 -1.509982,0 -4.657561,0.0821 -8.530363,0.0952 z m 8.700905,-4.38076 c 0.01307,-1.647784 -1.803172,-1.385731 -5.35935,-1.421518 v 3.436078 c 3.556178,0.0439 5.351077,0.26848 5.35935,-2.01456 z m -1.140572,-5.446984 c 0.0087,-1.710049 -1.42399,-1.526436 -4.218778,-1.499763 v 3.206784 c 1.935963,-0.04376 4.250521,0.142039 4.218778,-1.707021 z m 4.434073,-7.783635 c -3.978417,0 -5.096673,-2.540709 -5.100759,-5.687092 -0.0041,-3.119985 0.926172,-5.795478 5.100759,-5.795478 1.924421,-0.112214 2.842893,0.199121 3.447341,0.835226 1.105387,1.16328 -0.453432,2.356863 -1.126097,1.087619 -2.321244,-0.523344 -5.164224,0.389102 -5.200659,3.851215 -0.03643,3.462112 2.879415,4.27163 5.394411,3.311398 0.886932,-1.127802 1.96717,-0.308013 1.466141,0.394671 -1.121223,1.572493 -1.303262,2.002441 -3.981137,2.002441 z M 67.42875,87.742393 c -1.970235,-0.503392 -3.698662,-1.227322 -2.560235,-2.506742 0.558942,-0.628162 1.642501,-0.628902 2.720385,-0.249592 1.797609,0.632582 2.142285,-0.178989 2.101628,-0.876213 -0.02648,-1.407201 -0.06524,-3.761508 -5e-6,-5.181815 H 65.1785 c -1.538962,0 -1.382955,-1.350607 -1.363445,-2.40877 1.218163,0 6.634789,-0.02251 8.167304,0 0.04514,1.212428 0.211515,8.827322 0,9.776164 -0.355227,1.593551 -2.413214,1.993828 -4.553618,1.446968 z"
       id="path93"
       sodipodi:nodetypes="cccccccccccccccccccccccccccccccccccccccccccccccscscscccccsccscscsczcscscscccccsss" />
    <path
       id="path1050"
       style="fill:#000000;fill-opacity:1;stroke-width:4.05642"
       d="M 325.73633,77.564453 A 41.574803,41.574803 0 0 1 284.90039,111.33984 41.574803,41.574803 0 0 1 244.48828,79.525391 41.574803,41.574803 0 0 0 243.75,87.324219 41.574803,41.574803 0 0 0 285.32422,128.90039 41.574803,41.574803 0 0 0 326.90039,87.324219 41.574803,41.574803 0 0 0 325.73633,77.564453 Z"
       transform="scale(0.26458333)" />
  </g>
</svg>
